<svg width="185" height="22" viewBox="0 0 185 22" fill="none" xmlns="http://www.w3.org/2000/svg">
<path d="M22.5419 4.02972C22.5065 2.92095 22.0588 2.06255 21.1044 1.5022C20.1442 0.941857 19.0838 0.79879 18.0057 0.792829C13.0513 0.780907 8.09101 0.786868 3.13661 0.786868C2.9422 0.786868 2.74191 0.792829 2.5475 0.786868C2.40611 0.780907 2.34131 0.828596 2.30597 0.977624C2.19404 1.46047 2.05854 1.93737 1.93483 2.41426C1.72864 3.20708 1.52245 3.99991 1.31626 4.81659H10.4416C10.4416 4.83447 10.4416 4.85236 10.4416 4.87024C10.3826 4.89408 10.3178 4.92389 10.2589 4.94773C8.10869 5.77037 5.95255 6.593 3.8023 7.40968C3.64913 7.46929 3.54309 7.54082 3.49597 7.71966C2.3472 12.0296 1.18666 16.3454 0.0261152 20.6553C-0.0327957 20.8818 -0.00334026 20.9295 0.232303 20.9295C2.3531 20.9176 4.47389 20.9176 6.59468 20.9295C6.80676 20.9295 6.87156 20.858 6.92458 20.6672C7.42532 18.7656 7.94374 16.864 8.44448 14.9565C8.51517 14.6942 8.62121 14.6167 8.88042 14.6286C9.85245 14.6584 10.8245 14.6703 11.7965 14.6644C13.1868 14.6524 14.583 14.7597 15.9674 14.5511C18.3827 14.1815 20.1324 12.9416 20.9925 10.575C21.4815 9.23378 21.7466 7.82696 22.1236 6.4559C22.3357 5.65711 22.5654 4.87024 22.5419 4.02972ZM14.7421 7.70177C14.6124 8.22635 14.4946 8.76285 14.2767 9.26359C13.9055 10.122 13.2693 10.587 12.3385 10.6048C11.4961 10.6227 10.6536 10.6108 9.80532 10.6168C9.64037 10.6168 9.60502 10.581 9.65215 10.4141C10.1411 8.61979 10.6242 6.82549 11.1014 5.02523C11.1485 4.85832 11.2251 4.81063 11.39 4.81659C11.8201 4.82851 12.256 4.82255 12.7744 4.82255C13.2104 4.84639 13.7406 4.7689 14.2649 4.88216C14.8363 5.00734 15.1014 5.33521 15.0955 5.93132C15.0955 6.54531 14.8893 7.11758 14.7421 7.70177Z" fill="#3157A1"/>
<path d="M38.5126 5.07292C37.8351 4.84043 37.14 4.75102 36.4271 4.74505C33.4521 4.73909 30.4771 4.72121 27.5021 4.73909C26.0588 4.75102 24.9749 5.43058 24.2856 6.72415C24.0676 7.13547 23.9145 7.57659 23.7672 8.01771C23.6906 8.2502 23.7377 8.31577 23.9911 8.31577C25.7289 8.30385 27.4668 8.30981 29.2047 8.30981C29.3284 8.30981 29.458 8.28 29.5994 8.36346C29.5051 8.40519 29.4285 8.44095 29.3461 8.47076C27.3608 9.26359 25.3755 10.0505 23.3843 10.8373C23.2193 10.9029 23.1369 10.9804 23.0897 11.1592C22.748 12.4289 22.3887 13.6987 22.047 14.9684C21.8172 15.8208 21.5286 16.6554 21.4343 17.5376C21.2694 18.9981 21.9351 20.083 23.3077 20.5659C23.9616 20.7984 24.645 20.9057 25.3283 20.9057C29.187 20.9235 33.0457 20.9176 36.8984 20.9295C37.0987 20.9295 37.14 20.8282 37.1812 20.6791C37.4522 19.624 37.7173 18.5689 38 17.5197C38.059 17.2932 38.0059 17.2336 37.7762 17.2336C35.6495 17.2396 33.5169 17.2396 31.3844 17.2396C30.6892 17.2396 29.9882 17.2455 29.293 17.2396C28.4506 17.2277 28.103 16.7984 28.2209 15.9579C28.2739 15.5705 28.4094 15.2128 28.5272 14.8432C28.592 14.6524 28.6862 14.6107 28.863 14.6107C30.1178 14.6346 31.3726 14.6167 32.6274 14.6465C34.5125 14.6882 36.3977 14.6524 38.2828 14.6644C38.5244 14.6644 38.6186 14.5988 38.6775 14.3603C39.0546 12.9118 39.4551 11.4752 39.8322 10.0266C40.0443 9.2159 40.3035 8.41115 40.2858 7.55274C40.2681 6.30687 39.679 5.47827 38.5126 5.07292ZM33.5228 9.55568C33.458 10.0803 33.2931 10.575 33.1811 11.0877C33.1576 11.195 33.1105 11.2606 32.9867 11.2606C31.8321 11.2546 30.6715 11.2606 29.4874 11.2606C29.7349 10.3187 29.9705 9.40069 30.2061 8.48268C30.2356 8.36346 30.3063 8.33961 30.4182 8.33961C31.1252 8.34557 31.8321 8.32769 32.5331 8.3575C33.2636 8.38134 33.6171 8.82843 33.5228 9.55568Z" fill="#3157A1"/>
<path d="M39.7262 20.9295C40.3094 18.6822 40.8867 16.4825 41.4581 14.2769C41.7232 13.2635 41.9942 12.2501 42.2534 11.2308C42.3006 11.0519 42.383 10.9506 42.5539 10.885C44.5156 10.1041 46.4715 9.31724 48.4273 8.53633C48.5451 8.48864 48.6629 8.44095 48.8043 8.38134C48.6806 8.28596 48.5628 8.32173 48.4568 8.32173C46.7189 8.32173 44.981 8.32173 43.2431 8.32769C43.0487 8.32769 43.0134 8.29192 43.0723 8.09521C43.3492 7.06393 43.6202 6.0267 43.8794 4.98946C43.9265 4.7987 44.0149 4.74505 44.2034 4.74505C47.9914 4.74505 51.7793 4.73909 55.5732 4.74505C56.2094 4.74505 56.8457 4.81659 57.4642 5.00138C59.0018 5.46039 59.6911 6.55127 59.4495 8.16674C59.2728 9.353 58.8899 10.4916 58.5835 11.654C57.7941 14.6524 56.9812 17.639 56.1859 20.6315C56.127 20.858 56.0445 20.9355 55.7971 20.9355C53.8707 20.9236 51.9502 20.9236 50.0238 20.9355C49.7881 20.9355 49.7292 20.8997 49.7999 20.6434C50.7425 17.1442 51.6733 13.645 52.6041 10.1458C52.6748 9.87758 52.716 9.60337 52.7101 9.3232C52.6983 8.78074 52.4804 8.50056 51.9443 8.39922C51.42 8.29788 50.8898 8.37538 50.3596 8.35154C50.0591 8.33961 49.688 8.25616 49.47 8.39326C49.2403 8.53633 49.2697 8.94169 49.1873 9.23378C48.174 13.0191 47.1607 16.8044 46.1651 20.5957C46.0885 20.8759 45.9825 20.9355 45.7115 20.9355C43.8381 20.9236 41.9589 20.9295 40.0855 20.9295C39.9736 20.9295 39.8676 20.9295 39.7262 20.9295Z" fill="#3157A1"/>
<path d="M80.7399 9.89546C80.2333 11.7076 79.7326 13.49 79.2377 15.2664C79.1317 15.642 79.0433 16.0175 79.061 16.405C79.0846 16.9057 79.3261 17.2157 79.8209 17.2753C80.6398 17.3767 81.4704 17.3111 82.2893 17.3111C82.4896 17.3111 82.4542 17.1382 82.4837 17.0309C82.9079 15.4334 83.3261 13.8358 83.7385 12.2322C83.9506 11.4156 84.1509 10.5989 84.3571 9.7822C84.3689 9.72259 84.3806 9.66298 84.3865 9.60337C84.469 8.73305 84.1214 8.33365 83.2554 8.33961C80.6575 8.34557 78.0536 8.36346 75.4556 8.36942C75.2377 8.36942 75.0256 8.35749 74.8076 8.36346C74.6368 8.36942 74.5779 8.32173 74.6309 8.14289C74.9372 7.06989 75.2436 5.99093 75.544 4.91196C75.5794 4.78678 75.6265 4.72717 75.762 4.73313C75.8975 4.73909 76.0389 4.72717 76.1744 4.72717C79.7797 4.72717 83.3792 4.72121 86.9845 4.72717C87.7916 4.72717 88.581 4.8762 89.3291 5.21598C90.7548 5.85978 91.4264 7.11162 91.0729 8.65555C90.6959 10.2829 90.2423 11.8924 89.8122 13.5139C89.1878 15.8745 88.5515 18.241 87.933 20.6016C87.8682 20.8461 87.7739 20.9176 87.5206 20.9176C83.8681 20.9057 80.2156 20.9116 76.5632 20.9116C75.815 20.9116 75.0727 20.8639 74.3481 20.6553C72.8164 20.2201 72.1213 19.1233 72.3452 17.5317C72.5101 16.3692 72.9343 15.2724 73.2347 14.1457C73.3466 13.7225 73.4821 13.3112 73.6 12.8879C73.6353 12.7508 73.6942 12.6674 73.8297 12.6137C76.0978 11.7076 78.3658 10.8016 80.6339 9.89546C80.6457 9.90143 80.6751 9.90143 80.7399 9.89546Z" fill="#3157A1"/>
<path d="M71.6617 0.0238445C71.2788 1.49624 70.9018 2.95076 70.5189 4.40527C70.4246 4.75698 70.4246 4.75102 70.7957 4.74505C71.6617 4.73909 72.5218 4.75102 73.3878 4.73909C73.5763 4.73909 73.5763 4.81063 73.541 4.94773C73.2582 6.02073 72.9754 7.09374 72.7045 8.16674C72.6632 8.33365 72.5866 8.38134 72.4217 8.38134C71.538 8.37538 70.6544 8.38134 69.7707 8.37538C69.5645 8.37538 69.4702 8.42903 69.4113 8.64959C68.7751 11.1235 68.1212 13.5914 67.4791 16.0593C67.2729 16.8521 67.5439 17.2336 68.345 17.2992C68.9813 17.3528 69.6175 17.3171 70.2597 17.323C70.4658 17.323 70.5542 17.3409 70.4894 17.5913C70.2066 18.6285 69.9356 19.6777 69.6705 20.7209C69.6293 20.8759 69.5704 20.9295 69.4172 20.9355C67.2905 21.013 65.158 20.9712 63.0372 20.7984C62.666 20.7686 62.3008 20.6732 61.9532 20.548C61.0578 20.2261 60.61 19.6061 60.5924 18.6404C60.5747 17.7761 60.8044 16.9534 61.0224 16.1308C61.6881 13.645 62.3538 11.1592 63.0372 8.6794C63.1079 8.41115 63.0607 8.36346 62.8015 8.36942C62.0475 8.3873 61.2875 8.37538 60.5334 8.3873C60.3744 8.3873 60.2801 8.39326 60.339 8.16674C60.6277 7.0997 60.9046 6.0267 61.1756 4.94773C61.2227 4.76294 61.317 4.74505 61.4701 4.74505C62.2242 4.75102 62.9841 4.73909 63.7382 4.75102C63.9621 4.75102 64.0799 4.70333 64.1388 4.45296C64.4923 3.04017 64.8752 1.63931 65.2345 0.226523C65.2758 0.0715335 65.3288 0 65.5055 0C67.5262 0.00596112 69.5527 0.00596112 71.5734 0.00596112C71.5852 0.00596112 71.6028 0.0119222 71.6617 0.0238445Z" fill="#3157A1"/>
<path d="M177.065 12.5362C178.202 11.1175 179.304 9.74047 180.411 8.35749C181.271 7.28449 182.131 6.21745 182.991 5.14445C183.056 5.06099 183.115 5.00138 183.233 5.00138C183.81 5.00734 184.388 5.00138 184.994 5.00138C184.924 5.23983 184.747 5.37693 184.617 5.53192C182.255 8.42307 179.893 11.3142 177.53 14.2054C177.354 14.4259 177.301 14.6822 177.236 14.9386C176.759 16.9415 176.282 18.9445 175.816 20.9474C175.781 21.1083 175.71 21.1739 175.533 21.168C175.15 21.156 174.767 21.1501 174.385 21.168C174.137 21.1799 174.114 21.0964 174.167 20.8878C174.497 19.5525 174.815 18.2112 175.133 16.8759C175.315 16.1248 175.492 15.3737 175.675 14.6226C175.71 14.4736 175.692 14.3305 175.645 14.1875C174.921 11.9342 174.202 9.68086 173.477 7.42756C173.242 6.69434 173.006 5.96112 172.712 5.22194C172.623 5.58557 172.523 5.94324 172.452 6.31283C172.405 6.54531 172.317 6.62877 172.063 6.62877C170.697 6.61088 169.336 6.62281 167.969 6.61685C167.792 6.61685 167.71 6.64665 167.657 6.85529C166.703 10.891 165.736 14.9207 164.776 18.9504C164.617 19.6121 164.446 20.2738 164.293 20.9414C164.252 21.1262 164.169 21.1739 163.993 21.168C163.61 21.156 163.227 21.156 162.844 21.168C162.649 21.1739 162.596 21.1381 162.649 20.9176C163.003 19.475 163.345 18.0324 163.686 16.5898C164.464 13.347 165.236 10.1041 166.019 6.86721C166.066 6.67646 166.025 6.61685 165.819 6.61685C164.452 6.62877 163.091 6.61685 161.725 6.62877C161.459 6.62877 161.412 6.56916 161.483 6.31879C161.583 5.97901 161.66 5.6273 161.73 5.28155C161.772 5.0908 161.837 5.00734 162.054 5.00734C166.149 5.0133 170.243 5.0133 174.337 5.00734C174.532 5.00734 174.626 5.06099 174.691 5.25771C175.427 7.56466 176.175 9.87162 176.924 12.1786C176.971 12.2799 177.012 12.3813 177.065 12.5362Z" fill="#999999"/>
<path d="M154.921 5.47827C154.308 5.12657 153.624 5.01926 152.935 5.0133C150.591 4.99542 148.246 5.00734 145.901 4.99542C145.677 4.99542 145.63 5.0908 145.583 5.28155C144.629 9.30531 143.663 13.3231 142.702 17.3469C142.419 18.5272 142.137 19.7134 141.848 20.8937C141.795 21.1083 141.842 21.1799 142.06 21.168C142.431 21.156 142.808 21.1501 143.179 21.168C143.392 21.1799 143.456 21.0964 143.503 20.8997C143.975 18.9087 144.458 16.9177 144.929 14.9267C144.976 14.7359 145.041 14.7001 145.218 14.7061C145.748 14.724 146.278 14.7121 146.808 14.7121C148.075 14.718 149.342 14.7001 150.608 14.7299C151.433 14.7478 152.093 15.1353 152.105 16.1189C152.11 16.5004 152.075 16.87 151.993 17.2396C151.71 18.4735 151.421 19.7075 151.121 20.9355C151.074 21.1322 151.109 21.1799 151.297 21.1739C151.68 21.162 152.063 21.156 152.446 21.1739C152.658 21.1858 152.735 21.1024 152.782 20.9057C152.929 20.2499 153.1 19.6002 153.242 18.9385C153.454 17.943 153.807 16.9773 153.872 15.952C153.937 14.9445 153.56 14.2173 152.487 14.0086C152.405 13.9908 152.323 13.961 152.175 13.9192C153.554 13.7165 154.479 12.9953 154.991 11.7673C155.557 10.4081 155.922 8.98937 155.94 7.50505C155.94 6.6705 155.698 5.92536 154.921 5.47827ZM154.29 7.9581C154.172 9.23974 153.878 10.4797 153.324 11.6421C152.906 12.5243 152.134 12.8939 151.215 13.0012C149.972 13.1443 148.723 13.0429 147.48 13.0668C146.873 13.0787 146.261 13.0549 145.654 13.0727C145.418 13.0787 145.377 13.0131 145.43 12.7926C145.807 11.2486 146.178 9.69875 146.549 8.14886C146.643 7.7435 146.75 7.3441 146.832 6.93279C146.879 6.70626 146.956 6.61089 147.215 6.61685C148.081 6.63473 148.941 6.62281 149.807 6.62281V6.62877C150.649 6.62877 151.498 6.62281 152.34 6.63473C152.741 6.64069 153.141 6.68838 153.524 6.82549C154.043 7.00432 154.343 7.39775 154.29 7.9581Z" fill="#999999"/>
<path d="M104.375 9.42454C104.44 8.98341 104.516 8.5721 104.563 8.16078C104.687 7.02817 104.281 6.67646 103.432 6.58108C102.142 6.43801 100.852 6.46186 99.5561 6.59896C98.3307 6.72415 97.6591 7.43352 97.3587 8.58402C97.1996 9.19801 97.0582 9.81201 96.9993 10.4498C96.9169 11.3261 97.4058 11.8746 98.372 11.9878C99.2085 12.0832 100.057 12.0415 100.899 12.107C101.736 12.1726 102.584 12.1845 103.403 12.4051C104.334 12.6555 104.811 13.2277 104.829 14.1934C104.858 15.9997 104.399 17.6866 103.538 19.2604C102.89 20.4466 101.812 21.007 100.516 21.1679C99.0435 21.3527 97.559 21.3349 96.0803 21.2216C95.5855 21.1858 95.0906 21.0904 94.6252 20.8937C93.8417 20.5659 93.4588 19.9519 93.394 19.1233C93.3174 18.1457 93.5472 17.2157 93.8064 16.2858C93.8476 16.1487 93.9242 16.101 94.0656 16.107C94.4603 16.1129 94.8491 16.1248 95.2438 16.107C95.4677 16.095 95.5089 16.1606 95.4559 16.3692C95.3086 16.9236 95.1908 17.484 95.1495 18.0622C95.0788 19.0696 95.4382 19.5406 96.4338 19.6121C97.7828 19.7075 99.1378 19.7313 100.487 19.5763C101.365 19.475 101.989 19.0398 102.354 18.2351C102.761 17.3528 103.008 16.4289 103.102 15.4632C103.214 14.3782 102.826 13.9311 101.759 13.8477C100.558 13.7583 99.3558 13.6867 98.154 13.5973C97.7239 13.5675 97.2939 13.5198 96.8756 13.4125C95.5796 13.0727 95.179 12.3157 95.2438 11.0936C95.3204 9.6749 95.7092 8.32173 96.3867 7.06989C97.0406 5.86575 98.0774 5.22791 99.397 5.02523C100.77 4.81063 102.154 4.85832 103.533 4.91197C103.892 4.92985 104.251 4.9835 104.605 5.07292C105.977 5.40674 106.378 6.25918 106.337 7.51698C106.319 8.08924 106.195 8.65555 106.06 9.2159C106.019 9.37089 105.96 9.44242 105.783 9.44242C105.312 9.41261 104.846 9.42454 104.375 9.42454Z" fill="#999999"/>
<path d="M120.693 21.2872C120.098 21.2514 119.368 21.3408 118.631 21.2335C117.306 21.0428 116.399 20.0651 116.24 18.7179C116.11 17.6151 116.346 16.5719 116.599 15.5228C117.076 13.5496 117.542 11.5765 118.019 9.60933C118.184 8.93572 118.437 8.28596 118.761 7.67197C119.491 6.30091 120.623 5.47827 122.113 5.13849C122.932 4.95369 123.757 4.8762 124.593 4.88812C125.583 4.90004 126.573 4.81659 127.556 4.94773C128.858 5.1206 129.589 5.92536 129.606 7.26661C129.618 8.15482 129.43 9.01918 129.218 9.87162C129.182 10.0147 129.112 10.0385 128.988 10.0385C128.575 10.0326 128.163 10.0326 127.751 10.0385C127.562 10.0445 127.55 9.97296 127.586 9.80009C127.692 9.34108 127.81 8.87611 127.857 8.40518C127.992 7.15931 127.662 6.63473 126.443 6.53935C125.047 6.43801 123.639 6.41417 122.254 6.71222C120.988 6.98644 120.222 7.80311 119.833 9.01322C119.415 10.3127 119.162 11.66 118.838 12.9833C118.519 14.2888 118.172 15.5883 117.977 16.9236C117.907 17.4065 117.871 17.8893 117.948 18.3722C118.06 19.0458 118.525 19.5286 119.315 19.5942C120.858 19.7194 122.408 19.7671 123.945 19.4988C124.758 19.3558 125.324 18.8789 125.671 18.1218C125.995 17.4244 126.119 16.6673 126.296 15.9281C126.349 15.7076 126.431 15.5943 126.667 15.636C127.05 15.7016 127.433 15.6181 127.81 15.636C127.898 15.642 128.028 15.6062 127.98 15.7791C127.71 16.7865 127.55 17.8297 127.085 18.7835C126.39 20.2082 125.229 20.9355 123.715 21.156C122.779 21.311 121.807 21.2812 120.693 21.2872Z" fill="#999999"/>
<path d="M133.789 21.2812C132.699 21.2931 131.721 21.2991 130.761 21.0487C129.536 20.7268 128.929 19.8386 128.953 18.551C128.97 17.1502 129.412 15.8447 129.718 14.5034C130.319 11.8805 130.961 9.26955 131.58 6.65261C131.692 6.16976 131.816 5.69287 131.928 5.21002C131.963 5.06695 132.028 4.99542 132.187 5.00138C132.57 5.0133 132.953 5.01926 133.336 5.00138C133.595 4.98946 133.618 5.07888 133.565 5.3054C133.283 6.4559 133 7.61235 132.729 8.76881C132.057 11.5884 131.392 14.408 130.72 17.2276C130.632 17.6092 130.602 17.9907 130.626 18.3781C130.655 18.8252 130.867 19.1412 131.268 19.3319C131.645 19.5108 132.057 19.5823 132.464 19.6061C133.777 19.6896 135.091 19.7254 136.399 19.5644C137.43 19.4392 138.131 18.8848 138.532 17.9251C138.897 17.0607 139.056 16.1427 139.274 15.2426C139.922 12.5601 140.558 9.87758 141.2 7.19507C141.359 6.53935 141.518 5.88959 141.666 5.23387C141.701 5.07292 141.76 5.00138 141.937 5.00734C142.331 5.01926 142.72 5.01926 143.115 5.00734C143.327 5.00138 143.35 5.06099 143.303 5.26367C142.838 7.16527 142.39 9.07283 141.937 10.9744C141.448 13.0251 140.97 15.0757 140.452 17.1203C140.187 18.1814 139.739 19.159 138.95 19.94C138.184 20.697 137.23 21.0189 136.205 21.1679C135.374 21.2812 134.531 21.311 133.789 21.2812Z" fill="#999999"/>
<path d="M104.846 21.1441C105.023 20.393 105.188 19.6538 105.365 18.9146C106.225 15.2962 107.091 11.6838 107.957 8.0654C108.181 7.12354 108.422 6.18168 108.64 5.23983C108.681 5.04907 108.764 5.00734 108.941 5.00734C111.845 5.0133 114.749 5.0133 117.659 5.00734C117.901 5.00734 117.942 5.0908 117.883 5.3054C117.789 5.65711 117.689 6.01477 117.63 6.37244C117.595 6.593 117.488 6.63473 117.294 6.62877C114.979 6.62281 112.664 6.62877 110.343 6.61685C110.042 6.61685 109.936 6.69434 109.865 6.99836C109.5 8.60786 109.111 10.2114 108.711 11.8149C108.652 12.0594 108.699 12.113 108.941 12.107C111.161 12.1011 113.377 12.107 115.597 12.0951C115.863 12.0951 115.951 12.1368 115.857 12.423C115.751 12.733 115.686 13.0549 115.627 13.3708C115.592 13.5616 115.503 13.6033 115.326 13.6092C114.06 13.6629 112.793 13.6212 111.527 13.6331C110.525 13.6391 109.524 13.6391 108.528 13.6271C108.328 13.6271 108.263 13.7106 108.216 13.8954C107.792 15.6956 107.362 17.4959 106.926 19.2902C106.879 19.475 106.938 19.5286 107.097 19.5346C107.156 19.5346 107.214 19.5346 107.273 19.5346C109.6 19.5346 111.927 19.5406 114.254 19.5286C114.443 19.5286 114.472 19.5704 114.431 19.7373C114.331 20.1367 114.231 20.542 114.142 20.9474C114.107 21.0964 114.048 21.162 113.889 21.162C110.926 21.156 107.963 21.156 104.994 21.156C104.946 21.162 104.911 21.156 104.846 21.1441Z" fill="#999999"/>
<path d="M155.716 21.168C155.551 21.168 155.38 21.1501 155.215 21.1739C154.95 21.2037 154.885 21.1322 154.95 20.858C155.321 19.3617 155.675 17.8595 156.034 16.3573C156.918 12.6614 157.795 8.97149 158.673 5.2756C158.72 5.08484 158.785 4.98946 159.003 5.00138C159.386 5.02523 159.769 5.01331 160.152 5.00138C160.328 4.99542 160.387 5.03119 160.334 5.23387C159.869 7.14739 159.421 9.06091 158.962 10.9744C158.178 14.253 157.389 17.5317 156.617 20.8103C156.552 21.0726 156.476 21.2156 156.187 21.168C156.034 21.1441 155.875 21.168 155.716 21.168Z" fill="#999999"/>
</svg>
