<svg width="189" height="36" viewBox="0 0 189 36" fill="none" xmlns="http://www.w3.org/2000/svg">
<path d="M24.5419 11.0297C24.5065 9.92095 24.0588 9.06255 23.1044 8.5022C22.1442 7.94186 21.0838 7.79879 20.0057 7.79283C15.0513 7.78091 10.091 7.78687 5.13661 7.78687C4.9422 7.78687 4.74191 7.79283 4.5475 7.78687C4.40611 7.78091 4.34131 7.8286 4.30597 7.97762C4.19404 8.46047 4.05854 8.93737 3.93483 9.41426C3.72864 10.2071 3.52245 10.9999 3.31626 11.8166H12.4416C12.4416 11.8345 12.4416 11.8524 12.4416 11.8702C12.3826 11.8941 12.3178 11.9239 12.2589 11.9477C10.1087 12.7704 7.95255 13.593 5.8023 14.4097C5.64913 14.4693 5.54309 14.5408 5.49597 14.7197C4.3472 19.0296 3.18666 23.3454 2.02612 27.6553C1.9672 27.8818 1.99666 27.9295 2.2323 27.9295C4.3531 27.9176 6.47389 27.9176 8.59468 27.9295C8.80676 27.9295 8.87156 27.858 8.92458 27.6672C9.42532 25.7656 9.94374 23.864 10.4445 21.9565C10.5152 21.6942 10.6212 21.6167 10.8804 21.6286C11.8525 21.6584 12.8245 21.6703 13.7965 21.6644C15.1868 21.6524 16.583 21.7597 17.9674 21.5511C20.3827 21.1815 22.1324 19.9416 22.9925 17.575C23.4815 16.2338 23.7466 14.827 24.1236 13.4559C24.3357 12.6571 24.5654 11.8702 24.5419 11.0297ZM16.7421 14.7018C16.6124 15.2264 16.4946 15.7629 16.2767 16.2636C15.9055 17.122 15.2693 17.587 14.3385 17.6048C13.4961 17.6227 12.6536 17.6108 11.8053 17.6168C11.6404 17.6168 11.605 17.581 11.6522 17.4141C12.1411 15.6198 12.6242 13.8255 13.1014 12.0252C13.1485 11.8583 13.2251 11.8106 13.39 11.8166C13.8201 11.8285 14.256 11.8225 14.7744 11.8225C15.2104 11.8464 15.7406 11.7689 16.2649 11.8822C16.8363 12.0073 17.1014 12.3352 17.0955 12.9313C17.0955 13.5453 16.8893 14.1176 16.7421 14.7018Z" fill="white"/>
<path d="M40.5126 12.0729C39.8351 11.8404 39.14 11.751 38.4272 11.7451C35.4522 11.7391 32.4772 11.7212 29.5022 11.7391C28.0589 11.751 26.9749 12.4306 26.2856 13.7241C26.0677 14.1355 25.9145 14.5766 25.7672 15.0177C25.6906 15.2502 25.7378 15.3158 25.9911 15.3158C27.729 15.3038 29.4668 15.3098 31.2047 15.3098C31.3284 15.3098 31.458 15.28 31.5994 15.3635C31.5051 15.4052 31.4286 15.4409 31.3461 15.4708C29.3608 16.2636 27.3755 17.0505 25.3843 17.8373C25.2194 17.9029 25.1369 17.9804 25.0898 18.1592C24.7481 19.4289 24.3887 20.6987 24.047 21.9684C23.8173 22.8208 23.5286 23.6554 23.4344 24.5376C23.2694 25.9981 23.9351 27.083 25.3077 27.5659C25.9616 27.7984 26.645 27.9057 27.3284 27.9057C31.187 27.9235 35.0457 27.9176 38.8985 27.9295C39.0987 27.9295 39.14 27.8282 39.1812 27.6791C39.4522 26.624 39.7173 25.5689 40.0001 24.5197C40.059 24.2932 40.006 24.2336 39.7762 24.2336C37.6495 24.2396 35.517 24.2396 33.3844 24.2396C32.6892 24.2396 31.9882 24.2455 31.2931 24.2396C30.4506 24.2276 30.1031 23.7984 30.2209 22.9579C30.2739 22.5705 30.4094 22.2128 30.5272 21.8432C30.592 21.6524 30.6863 21.6107 30.863 21.6107C32.1178 21.6346 33.3726 21.6167 34.6274 21.6465C36.5126 21.6882 38.3977 21.6524 40.2829 21.6644C40.5244 21.6644 40.6186 21.5988 40.6776 21.3603C41.0546 19.9118 41.4552 18.4752 41.8322 17.0266C42.0443 16.2159 42.3035 15.4111 42.2858 14.5527C42.2682 13.3069 41.679 12.4783 40.5126 12.0729ZM35.5229 16.5557C35.4581 17.0803 35.2931 17.575 35.1812 18.0877C35.1576 18.195 35.1105 18.2606 34.9868 18.2606C33.8321 18.2546 32.6716 18.2606 31.4875 18.2606C31.7349 17.3187 31.9705 16.4007 32.2062 15.4827C32.2356 15.3635 32.3063 15.3396 32.4183 15.3396C33.1252 15.3456 33.8321 15.3277 34.5332 15.3575C35.2637 15.3813 35.6171 15.8284 35.5229 16.5557Z" fill="white"/>
<path d="M41.7262 27.9295C42.3094 25.6822 42.8867 23.4825 43.4582 21.2769C43.7233 20.2635 43.9943 19.2501 44.2535 18.2308C44.3006 18.0519 44.3831 17.9506 44.5539 17.885C46.5157 17.1041 48.4715 16.3172 50.4273 15.5363C50.5452 15.4886 50.663 15.4409 50.8044 15.3813C50.6806 15.286 50.5628 15.3217 50.4568 15.3217C48.7189 15.3217 46.981 15.3217 45.2432 15.3277C45.0488 15.3277 45.0134 15.2919 45.0723 15.0952C45.3492 14.0639 45.6202 13.0267 45.8794 11.9895C45.9265 11.7987 46.0149 11.7451 46.2034 11.7451C49.9914 11.7451 53.7794 11.7391 57.5732 11.7451C58.2095 11.7451 58.8457 11.8166 59.4643 12.0014C61.0018 12.4604 61.6911 13.5513 61.4496 15.1667C61.2728 16.353 60.8899 17.4916 60.5836 18.654C59.7942 21.6524 58.9812 24.639 58.1859 27.6315C58.127 27.858 58.0445 27.9355 57.7971 27.9355C55.8707 27.9235 53.9502 27.9235 52.0238 27.9355C51.7882 27.9355 51.7293 27.8997 51.8 27.6434C52.7425 24.1442 53.6733 20.645 54.6041 17.1458C54.6748 16.8776 54.716 16.6034 54.7102 16.3232C54.6984 15.7807 54.4804 15.5006 53.9443 15.3992C53.42 15.2979 52.8898 15.3754 52.3596 15.3515C52.0592 15.3396 51.688 15.2562 51.4701 15.3933C51.2403 15.5363 51.2698 15.9417 51.1873 16.2338C50.174 20.0191 49.1607 23.8044 48.1652 27.5957C48.0886 27.8759 47.9825 27.9355 47.7115 27.9355C45.8382 27.9235 43.9589 27.9295 42.0856 27.9295C41.9736 27.9295 41.8676 27.9295 41.7262 27.9295Z" fill="white"/>
<path d="M82.7399 16.8955C82.2333 18.7076 81.7325 20.49 81.2377 22.2664C81.1316 22.642 81.0433 23.0175 81.061 23.405C81.0845 23.9057 81.3261 24.2157 81.8209 24.2753C82.6398 24.3767 83.4704 24.3111 84.2893 24.3111C84.4896 24.3111 84.4542 24.1382 84.4837 24.0309C84.9078 22.4333 85.3261 20.8358 85.7385 19.2322C85.9506 18.4155 86.1509 17.5989 86.357 16.7822C86.3688 16.7226 86.3806 16.663 86.3865 16.6034C86.469 15.733 86.1214 15.3336 85.2554 15.3396C82.6574 15.3456 80.0536 15.3635 77.4556 15.3694C77.2376 15.3694 77.0256 15.3575 76.8076 15.3635C76.6368 15.3694 76.5778 15.3217 76.6309 15.1429C76.9372 14.0699 77.2435 12.9909 77.544 11.912C77.5793 11.7868 77.6265 11.7272 77.762 11.7331C77.8974 11.7391 78.0388 11.7272 78.1743 11.7272C81.7797 11.7272 85.3791 11.7212 88.9845 11.7272C89.7915 11.7272 90.5809 11.8762 91.3291 12.216C92.7548 12.8598 93.4263 14.1116 93.0729 15.6555C92.6958 17.2829 92.2422 18.8924 91.8122 20.5139C91.1877 22.8745 90.5515 25.241 89.9329 27.6016C89.8681 27.8461 89.7739 27.9176 89.5205 27.9176C85.8681 27.9057 82.2156 27.9116 78.5631 27.9116C77.815 27.9116 77.0727 27.8639 76.3481 27.6553C74.8164 27.2201 74.1213 26.1233 74.3451 24.5317C74.5101 23.3692 74.9342 22.2724 75.2347 21.1457C75.3466 20.7225 75.4821 20.3112 75.5999 19.8879C75.6353 19.7508 75.6942 19.6674 75.8297 19.6137C78.0977 18.7076 80.3658 17.8016 82.6339 16.8955C82.6457 16.9014 82.6751 16.9014 82.7399 16.8955Z" fill="white"/>
<path d="M73.6618 7.02384C73.2789 8.49624 72.9018 9.95076 72.5189 11.4053C72.4246 11.757 72.4247 11.751 72.7958 11.7451C73.6618 11.7391 74.5219 11.751 75.3879 11.7391C75.5764 11.7391 75.5764 11.8106 75.541 11.9477C75.2583 13.0207 74.9755 14.0937 74.7045 15.1667C74.6633 15.3337 74.5867 15.3813 74.4217 15.3813C73.5381 15.3754 72.6544 15.3813 71.7707 15.3754C71.5646 15.3754 71.4703 15.429 71.4114 15.6496C70.7751 18.1235 70.1212 20.5914 69.4791 23.0593C69.2729 23.8521 69.5439 24.2336 70.3451 24.2992C70.9813 24.3528 71.6176 24.3171 72.2597 24.323C72.4659 24.323 72.5543 24.3409 72.4895 24.5913C72.2067 25.6285 71.9357 26.6777 71.6706 27.7209C71.6293 27.8759 71.5704 27.9295 71.4173 27.9355C69.2906 28.013 67.158 27.9712 65.0372 27.7984C64.6661 27.7686 64.3008 27.6732 63.9532 27.548C63.0578 27.2261 62.6101 26.6061 62.5924 25.6404C62.5747 24.7761 62.8045 23.9534 63.0225 23.1308C63.6882 20.645 64.3538 18.1592 65.0372 15.6794C65.1079 15.4111 65.0608 15.3635 64.8016 15.3694C64.0475 15.3873 63.2876 15.3754 62.5335 15.3873C62.3744 15.3873 62.2802 15.3933 62.3391 15.1667C62.6278 14.0997 62.9046 13.0267 63.1756 11.9477C63.2228 11.7629 63.317 11.7451 63.4702 11.7451C64.2242 11.751 64.9842 11.7391 65.7383 11.751C65.9621 11.751 66.0799 11.7033 66.1389 11.453C66.4923 10.0402 66.8752 8.63931 67.2346 7.22652C67.2758 7.07153 67.3288 7 67.5056 7C69.5262 7.00596 71.5528 7.00596 73.5734 7.00596C73.5852 7.00596 73.6029 7.01192 73.6618 7.02384Z" fill="white"/>
<path d="M179.065 19.5362C180.202 18.1175 181.304 16.7405 182.411 15.3575C183.271 14.2845 184.131 13.2175 184.991 12.1444C185.056 12.061 185.115 12.0014 185.233 12.0014C185.81 12.0073 186.388 12.0014 186.994 12.0014C186.924 12.2398 186.747 12.3769 186.617 12.5319C184.255 15.4231 181.893 18.3142 179.53 21.2054C179.354 21.4259 179.301 21.6822 179.236 21.9386C178.759 23.9415 178.281 25.9445 177.816 27.9474C177.781 28.1083 177.71 28.1739 177.533 28.168C177.15 28.156 176.767 28.1501 176.385 28.168C176.137 28.1799 176.114 28.0964 176.167 27.8878C176.496 26.5525 176.815 25.2112 177.133 23.8759C177.315 23.1248 177.492 22.3737 177.675 21.6226C177.71 21.4736 177.692 21.3305 177.645 21.1875C176.921 18.9342 176.202 16.6809 175.477 14.4276C175.242 13.6943 175.006 12.9611 174.711 12.2219C174.623 12.5856 174.523 12.9432 174.452 13.3128C174.405 13.5453 174.317 13.6288 174.063 13.6288C172.697 13.6109 171.336 13.6228 169.969 13.6168C169.792 13.6168 169.71 13.6467 169.657 13.8553C168.703 17.891 167.736 21.9207 166.776 25.9504C166.617 26.6121 166.446 27.2738 166.293 27.9414C166.252 28.1262 166.169 28.1739 165.993 28.168C165.61 28.156 165.227 28.156 164.844 28.168C164.649 28.1739 164.596 28.1381 164.649 27.9176C165.003 26.475 165.345 25.0324 165.686 23.5898C166.464 20.347 167.236 17.1041 168.019 13.8672C168.066 13.6765 168.025 13.6168 167.819 13.6168C166.452 13.6288 165.091 13.6168 163.725 13.6288C163.459 13.6288 163.412 13.5692 163.483 13.3188C163.583 12.979 163.66 12.6273 163.73 12.2816C163.772 12.0908 163.836 12.0073 164.054 12.0073C168.149 12.0133 172.243 12.0133 176.337 12.0073C176.532 12.0073 176.626 12.061 176.691 12.2577C177.427 14.5647 178.175 16.8716 178.924 19.1786C178.971 19.2799 179.012 19.3813 179.065 19.5362Z" fill="white"/>
<path d="M156.921 12.4783C156.308 12.1266 155.624 12.0193 154.935 12.0133C152.591 11.9954 150.246 12.0073 147.901 11.9954C147.677 11.9954 147.63 12.0908 147.583 12.2816C146.629 16.3053 145.662 20.3231 144.702 24.3469C144.419 25.5272 144.137 26.7134 143.848 27.8937C143.795 28.1083 143.842 28.1799 144.06 28.168C144.431 28.156 144.808 28.1501 145.179 28.168C145.392 28.1799 145.456 28.0964 145.503 27.8997C145.975 25.9087 146.458 23.9177 146.929 21.9267C146.976 21.7359 147.041 21.7001 147.218 21.7061C147.748 21.724 148.278 21.7121 148.808 21.7121C150.075 21.718 151.342 21.7001 152.608 21.7299C153.433 21.7478 154.093 22.1353 154.105 23.1189C154.11 23.5004 154.075 23.87 153.993 24.2396C153.71 25.4735 153.421 26.7075 153.121 27.9355C153.074 28.1322 153.109 28.1799 153.297 28.1739C153.68 28.162 154.063 28.156 154.446 28.1739C154.658 28.1858 154.735 28.1024 154.782 27.9057C154.929 27.2499 155.1 26.6002 155.242 25.9385C155.454 24.943 155.807 23.9773 155.872 22.952C155.937 21.9445 155.56 21.2173 154.487 21.0086C154.405 20.9908 154.323 20.961 154.175 20.9192C155.554 20.7165 156.479 19.9953 156.991 18.7673C157.557 17.4081 157.922 15.9894 157.94 14.5051C157.94 13.6705 157.698 12.9254 156.921 12.4783ZM156.29 14.9581C156.172 16.2397 155.878 17.4797 155.324 18.6421C154.906 19.5243 154.134 19.8939 153.215 20.0012C151.972 20.1443 150.723 20.0429 149.48 20.0668C148.873 20.0787 148.261 20.0549 147.654 20.0727C147.418 20.0787 147.377 20.0131 147.43 19.7926C147.807 18.2486 148.178 16.6988 148.549 15.1489C148.643 14.7435 148.749 14.3441 148.832 13.9328C148.879 13.7063 148.956 13.6109 149.215 13.6168C150.081 13.6347 150.941 13.6228 151.807 13.6228V13.6288C152.649 13.6288 153.498 13.6228 154.34 13.6347C154.741 13.6407 155.141 13.6884 155.524 13.8255C156.043 14.0043 156.343 14.3978 156.29 14.9581Z" fill="white"/>
<path d="M106.375 16.4245C106.44 15.9834 106.516 15.5721 106.563 15.1608C106.687 14.0282 106.281 13.6765 105.432 13.5811C104.142 13.438 102.852 13.4619 101.556 13.599C100.331 13.7242 99.6591 14.4335 99.3587 15.584C99.1996 16.198 99.0582 16.812 98.9993 17.4499C98.9168 18.3261 99.4058 18.8746 100.372 18.9878C101.208 19.0832 102.057 19.0415 102.899 19.107C103.736 19.1726 104.584 19.1845 105.403 19.4051C106.334 19.6555 106.811 20.2277 106.829 21.1934C106.858 22.9997 106.398 24.6867 105.538 26.2604C104.89 27.4466 103.812 28.007 102.516 28.1679C101.044 28.3527 99.559 28.3349 98.0803 28.2216C97.5855 28.1858 97.0906 28.0905 96.6252 27.8937C95.8417 27.5659 95.4588 26.9519 95.394 26.1233C95.3174 25.1457 95.5471 24.2157 95.8064 23.2858C95.8476 23.1487 95.9242 23.101 96.0656 23.107C96.4603 23.1129 96.8491 23.1248 97.2438 23.107C97.4676 23.095 97.5089 23.1606 97.4559 23.3692C97.3086 23.9236 97.1908 24.484 97.1495 25.0622C97.0788 26.0696 97.4382 26.5406 98.4338 26.6121C99.7828 26.7075 101.138 26.7313 102.487 26.5763C103.365 26.475 103.989 26.0398 104.354 25.2351C104.761 24.3528 105.008 23.4289 105.102 22.4632C105.214 21.3782 104.826 20.9311 103.759 20.8477C102.558 20.7583 101.356 20.6867 100.154 20.5973C99.7239 20.5675 99.2939 20.5198 98.8756 20.4125C97.5796 20.0727 97.179 19.3157 97.2438 18.0937C97.3204 16.6749 97.7092 15.3217 98.3866 14.0699C99.0405 12.8657 100.077 12.2279 101.397 12.0252C102.77 11.8106 104.154 11.8583 105.533 11.912C105.892 11.9299 106.251 11.9835 106.605 12.0729C107.977 12.4067 108.378 13.2592 108.337 14.517C108.319 15.0892 108.195 15.6556 108.06 16.2159C108.019 16.3709 107.96 16.4424 107.783 16.4424C107.312 16.4126 106.846 16.4245 106.375 16.4245Z" fill="white"/>
<path d="M122.693 28.2872C122.098 28.2514 121.368 28.3408 120.631 28.2335C119.306 28.0428 118.399 27.0651 118.24 25.7179C118.11 24.6151 118.346 23.5719 118.599 22.5228C119.076 20.5496 119.542 18.5765 120.019 16.6093C120.184 15.9357 120.437 15.286 120.761 14.672C121.491 13.3009 122.623 12.4783 124.113 12.1385C124.932 11.9537 125.757 11.8762 126.593 11.8881C127.583 11.9 128.573 11.8166 129.556 11.9477C130.858 12.1206 131.589 12.9254 131.606 14.2666C131.618 15.1548 131.43 16.0192 131.218 16.8716C131.182 17.0147 131.112 17.0385 130.988 17.0385C130.575 17.0326 130.163 17.0326 129.751 17.0385C129.562 17.0445 129.55 16.973 129.586 16.8001C129.692 16.3411 129.81 15.8761 129.857 15.4052C129.992 14.1593 129.662 13.6347 128.443 13.5394C127.047 13.438 125.639 13.4142 124.254 13.7122C122.988 13.9864 122.222 14.8031 121.833 16.0132C121.415 17.3127 121.162 18.66 120.838 19.9833C120.519 21.2888 120.172 22.5883 119.977 23.9236C119.907 24.4065 119.871 24.8893 119.948 25.3722C120.06 26.0458 120.525 26.5286 121.315 26.5942C122.858 26.7194 124.408 26.7671 125.945 26.4988C126.758 26.3558 127.324 25.8789 127.671 25.1218C127.995 24.4244 128.119 23.6673 128.296 22.9281C128.349 22.7076 128.431 22.5943 128.667 22.636C129.05 22.7016 129.433 22.6181 129.81 22.636C129.898 22.642 130.028 22.6062 129.98 22.7791C129.709 23.7865 129.55 24.8297 129.085 25.7835C128.39 27.2082 127.229 27.9355 125.715 28.156C124.779 28.311 123.807 28.2812 122.693 28.2872Z" fill="white"/>
<path d="M135.789 28.2812C134.699 28.2931 133.721 28.2991 132.761 28.0487C131.536 27.7268 130.929 26.8386 130.953 25.551C130.97 24.1502 131.412 22.8447 131.718 21.5034C132.319 18.8805 132.961 16.2695 133.58 13.6526C133.692 13.1698 133.816 12.6929 133.928 12.21C133.963 12.067 134.028 11.9954 134.187 12.0014C134.57 12.0133 134.953 12.0193 135.336 12.0014C135.595 11.9895 135.618 12.0789 135.565 12.3054C135.283 13.4559 135 14.6124 134.729 15.7688C134.057 18.5884 133.391 21.408 132.72 24.2276C132.632 24.6092 132.602 24.9907 132.626 25.3781C132.655 25.8252 132.867 26.1412 133.268 26.3319C133.645 26.5108 134.057 26.5823 134.464 26.6061C135.777 26.6896 137.091 26.7254 138.399 26.5644C139.43 26.4392 140.131 25.8848 140.531 24.9251C140.897 24.0607 141.056 23.1427 141.274 22.2426C141.922 19.5601 142.558 16.8776 143.2 14.1951C143.359 13.5394 143.518 12.8896 143.666 12.2339C143.701 12.0729 143.76 12.0014 143.937 12.0073C144.331 12.0193 144.72 12.0193 145.115 12.0073C145.327 12.0014 145.35 12.061 145.303 12.2637C144.838 14.1653 144.39 16.0728 143.937 17.9744C143.448 20.0251 142.97 22.0757 142.452 24.1203C142.187 25.1814 141.739 26.159 140.95 26.94C140.184 27.697 139.23 28.0189 138.204 28.1679C137.374 28.2812 136.531 28.311 135.789 28.2812Z" fill="white"/>
<path d="M106.846 28.1441C107.023 27.393 107.188 26.6538 107.365 25.9146C108.225 22.2962 109.091 18.6838 109.957 15.0654C110.181 14.1235 110.422 13.1817 110.64 12.2398C110.681 12.0491 110.764 12.0073 110.941 12.0073C113.845 12.0133 116.749 12.0133 119.659 12.0073C119.901 12.0073 119.942 12.0908 119.883 12.3054C119.789 12.6571 119.689 13.0148 119.63 13.3724C119.595 13.593 119.489 13.6347 119.294 13.6288C116.979 13.6228 114.664 13.6288 112.343 13.6168C112.042 13.6168 111.936 13.6943 111.865 13.9984C111.5 15.6079 111.111 17.2114 110.711 18.8149C110.652 19.0593 110.699 19.113 110.941 19.107C113.162 19.1011 115.377 19.107 117.597 19.0951C117.863 19.0951 117.951 19.1368 117.857 19.423C117.751 19.733 117.686 20.0549 117.627 20.3708C117.592 20.5616 117.503 20.6033 117.326 20.6092C116.06 20.6629 114.793 20.6212 113.527 20.6331C112.525 20.639 111.524 20.639 110.528 20.6271C110.328 20.6271 110.263 20.7106 110.216 20.8954C109.792 22.6956 109.362 24.4959 108.926 26.2902C108.879 26.475 108.938 26.5286 109.097 26.5346C109.156 26.5346 109.215 26.5346 109.273 26.5346C111.6 26.5346 113.927 26.5406 116.254 26.5286C116.443 26.5286 116.472 26.5704 116.431 26.7373C116.331 27.1367 116.231 27.542 116.142 27.9474C116.107 28.0964 116.048 28.162 115.889 28.162C112.926 28.156 109.963 28.156 106.994 28.156C106.946 28.162 106.911 28.156 106.846 28.1441Z" fill="white"/>
<path d="M157.716 28.168C157.551 28.168 157.38 28.1501 157.215 28.1739C156.95 28.2037 156.885 28.1322 156.95 27.858C157.321 26.3617 157.675 24.8595 158.034 23.3573C158.918 19.6614 159.795 15.9715 160.673 12.2756C160.72 12.0848 160.785 11.9895 161.003 12.0014C161.386 12.0252 161.769 12.0133 162.152 12.0014C162.328 11.9954 162.387 12.0312 162.334 12.2339C161.869 14.1474 161.421 16.0609 160.962 17.9744C160.178 21.253 159.389 24.5317 158.617 27.8103C158.552 28.0726 158.476 28.2156 158.187 28.168C158.034 28.1441 157.875 28.168 157.716 28.168Z" fill="white"/>
</svg>
