<svg width="50" height="14" viewBox="0 0 50 14" fill="none" xmlns="http://www.w3.org/2000/svg">
<path fill-rule="evenodd" clip-rule="evenodd" d="M5.84527 0L10.6272 7L5.84527 14H0L4.7819 7L0 0H5.84527Z" fill="#EF4747"/>
<path fill-rule="evenodd" clip-rule="evenodd" d="M15.6885 0L20.4704 7L15.6885 14H9.84326L14.6252 7L9.84326 0H15.6885Z" fill="#EF4747"/>
<path fill-rule="evenodd" clip-rule="evenodd" d="M25.5318 0L30.3137 7L25.5318 14H19.6865L24.4684 7L19.6865 0H25.5318Z" fill="#EF4747"/>
<path fill-rule="evenodd" clip-rule="evenodd" d="M35.3748 0L40.1567 7L35.3748 14H29.5295L34.3114 7L29.5295 0H35.3748Z" fill="#EF4747"/>
<path fill-rule="evenodd" clip-rule="evenodd" d="M45.2181 0L50 7L45.2181 14H39.3728L44.1547 7L39.3728 0H45.2181Z" fill="#EF4747"/>
</svg>
