<svg width="23" height="21" viewBox="0 0 23 21" fill="none" xmlns="http://www.w3.org/2000/svg">
<path d="M22.5419 4.02972C22.5065 2.92095 22.0588 2.06255 21.1044 1.5022C20.1442 0.941857 19.0838 0.79879 18.0057 0.792829C13.0513 0.780907 8.09101 0.786868 3.13661 0.786868C2.9422 0.786868 2.74191 0.792829 2.5475 0.786868C2.40611 0.780907 2.34131 0.828596 2.30597 0.977624C2.19404 1.46047 2.05854 1.93737 1.93483 2.41426C1.72864 3.20708 1.52245 3.99991 1.31626 4.81659H10.4416C10.4416 4.83447 10.4416 4.85236 10.4416 4.87024C10.3826 4.89408 10.3178 4.92389 10.2589 4.94773C8.10869 5.77037 5.95255 6.593 3.8023 7.40968C3.64913 7.46929 3.54309 7.54082 3.49597 7.71966C2.3472 12.0296 1.18666 16.3454 0.0261152 20.6553C-0.0327957 20.8818 -0.00334026 20.9295 0.232303 20.9295C2.3531 20.9176 4.47389 20.9176 6.59468 20.9295C6.80676 20.9295 6.87156 20.858 6.92458 20.6672C7.42532 18.7656 7.94374 16.864 8.44448 14.9565C8.51517 14.6942 8.62121 14.6167 8.88042 14.6286C9.85245 14.6584 10.8245 14.6703 11.7965 14.6644C13.1868 14.6524 14.583 14.7597 15.9674 14.5511C18.3827 14.1815 20.1324 12.9416 20.9925 10.575C21.4815 9.23378 21.7466 7.82696 22.1236 6.4559C22.3357 5.65711 22.5654 4.87024 22.5419 4.02972ZM14.7421 7.70177C14.6124 8.22635 14.4946 8.76285 14.2767 9.26359C13.9055 10.122 13.2693 10.587 12.3385 10.6048C11.4961 10.6227 10.6536 10.6108 9.80532 10.6168C9.64037 10.6168 9.60502 10.581 9.65215 10.4141C10.1411 8.61979 10.6242 6.82549 11.1014 5.02523C11.1485 4.85832 11.2251 4.81063 11.39 4.81659C11.8201 4.82851 12.256 4.82255 12.7744 4.82255C13.2104 4.84639 13.7406 4.7689 14.2649 4.88216C14.8363 5.00734 15.1014 5.33521 15.0955 5.93132C15.0955 6.54531 14.8893 7.11758 14.7421 7.70177Z" fill="#3157A1"/>
</svg>
